<?xml version="1.0" encoding="utf-8"?>
<!-- Generator: Adobe Illustrator 27.5.0, SVG Export Plug-In . SVG Version: 6.00 Build 0)  -->
<svg version="1.1" xmlns="http://www.w3.org/2000/svg" xmlns:xlink="http://www.w3.org/1999/xlink" x="0px" y="0px"
	 viewBox="0 0 1122 1122" style="enable-background:new 0 0 1122 1122;" xml:space="preserve">
<g id="BG">
	<rect style="fill:#FFFFFF;" width="1122" height="1122"/>
</g>
<g id="Object">
	<g>
		<path style="fill:#929496;" d="M998.851,625.631c0-7.945,0-15.891,0-23.838c-3.917,0-7.833,0-11.75,0
			c0.008,7.946,0.013,15.892,0.022,23.838C991.033,625.631,994.942,625.631,998.851,625.631z"/>
		<g>
			<path style="fill:#272525;" d="M235.929,362.384C235.697,362.43,235.626,362.454,235.929,362.384L235.929,362.384z"/>
			<path style="fill:#272525;" d="M678.611,536.084h-22.212c-3.576,0-6.501,2.926-6.501,6.501c0,3.575,2.925,6.501,6.501,6.501
				h22.212c3.576,0,6.501-2.926,6.501-6.501C685.112,539.01,682.187,536.084,678.611,536.084z"/>
			<path style="fill:#272525;" d="M603.486,536.084h-22.212c-3.576,0-6.501,2.926-6.501,6.501c0,3.575,2.925,6.501,6.501,6.501
				h22.212c3.576,0,6.501-2.926,6.501-6.501C609.987,539.01,607.062,536.084,603.486,536.084z"/>
			<path style="fill:#272525;" d="M328.654,675.783c-27.702-10.35-60.525-1.528-79.306,21.302
				c-19.085,23.2-22.139,56.609-6.556,82.542c15.528,25.841,45.915,38.99,75.4,33.401c33.297-6.311,57.07-36.669,57.462-70.094
				C375.302,712.994,356.748,686.279,328.654,675.783z M322.981,794.906c-22.259,7.818-47.356,0.88-62.141-17.614
				c-14.416-18.033-15.703-43.894-3.649-63.454c11.964-19.414,35.736-29.818,58.117-25.035
				c25.604,5.473,43.787,28.038,44.094,54.132C359.132,765.83,344.871,787.217,322.981,794.906z"/>
			<path style="fill:#272525;" d="M317.385,710.227c-12.766-4.864-27.873-0.799-36.615,9.639
				c-8.854,10.571-10.317,25.978-3.313,37.936c7.004,11.959,20.91,18.107,34.47,15.77c15.427-2.658,26.137-16.252,26.962-31.471
				c0.034-0.304,0.054-0.617,0.045-0.95c0.011-0.412-0.019-0.797-0.073-1.166C338.073,726.666,330.029,715.045,317.385,710.227z
				 M305.943,761.952c-11.356,0-20.801-9.445-20.801-20.801c0-11.357,9.445-20.801,20.801-20.801
				c11.582,0,20.495,9.449,20.801,20.801C326.438,752.501,317.526,761.952,305.943,761.952z"/>
			<path style="fill:#272525;" d="M799.99,675.783c-27.702-10.35-60.525-1.528-79.306,21.302
				c-19.085,23.2-22.139,56.609-6.556,82.542c15.528,25.841,45.915,38.99,75.4,33.401c33.297-6.311,57.07-36.669,57.462-70.094
				C846.639,712.994,828.084,686.279,799.99,675.783z M794.318,794.906c-22.259,7.818-47.356,0.88-62.141-17.614
				c-14.416-18.033-15.703-43.894-3.649-63.454c11.964-19.414,35.736-29.818,58.117-25.035
				c25.604,5.473,43.787,28.038,44.094,54.132C830.469,765.83,816.207,787.217,794.318,794.906z"/>
			<path style="fill:#272525;" d="M788.721,710.227c-12.766-4.864-27.872-0.799-36.615,9.639
				c-8.854,10.571-10.317,25.978-3.313,37.936c7.004,11.959,20.91,18.107,34.47,15.77c15.427-2.658,26.137-16.252,26.962-31.471
				c0.034-0.304,0.055-0.617,0.046-0.95c0.011-0.412-0.019-0.797-0.073-1.166C809.409,726.666,801.365,715.045,788.721,710.227z
				 M777.28,761.952c-11.356,0-20.801-9.445-20.801-20.801c0-11.357,9.445-20.801,20.801-20.801
				c11.582,0,20.495,9.449,20.801,20.801C797.774,752.501,788.862,761.952,777.28,761.952z"/>
			<path style="fill:#272525;" d="M1001.57,596.39c-4.832,0-9.663,0-14.495,0c-0.05-3.733-0.1-7.466-0.15-11.199
				c2.643,0.024,5.305-0.079,7.769-0.782c8.156-2.326,13.563-10.496,12.717-18.876c-0.931-9.23-8.671-15.535-17.653-15.966
				c-4.088,0-8.175,0-12.263,0c-1.718-10.928-6.523-21.272-16.672-26.965c-2.812-1.578-6.063-2.847-9.416-3.622
				c-1.758-8.094-3.712-16.138-5.915-24.125c-0.339-1.227-0.857-2.238-1.497-3.059c-8.675-40.875-22.954-81.213-48.027-114.598
				c-0.354-1.108-0.977-2.051-1.784-2.816c-8.019-13.98-21.852-22.455-37.079-26.213c9.433-17.528-3.498-38.798-23.218-40.357
				c-0.39-0.051-0.791-0.087-1.215-0.087c-21.602,0-43.203,0-64.804,0c-50.77,0-101.54,0-152.31,0c-58.718,0-117.435,0-176.153,0
				c-45.923,0-91.846,0-137.769,0c-11.664,0-23.328,0-34.992,0c-1.835,0-3.682-0.059-5.517,0
				c-19.461,0.624-33.07,20.335-25.456,38.367c-13.223,1.208-22.213,13.508-28.843,23.904
				c-12.792,20.057-21.576,42.926-29.41,65.283c-5.604,15.991-10.763,32.304-14.726,48.845
				c-4.802,15.497-9.253,31.274-11.748,47.307c-0.473,3.041-0.915,6.101-1.158,9.169c-0.06,0.754-0.108,1.511-0.136,2.269
				c0.07-1.042,0.259-0.925,0.185-0.334c-0.29,2.314-0.85,4.628-1.271,6.921c-3.117,16.979-6.206,33.963-9.352,50.936
				c-0.345,1.86-0.631,3.728-0.87,5.6c-5.208,0-10.417,0-15.626,0c-1.464,0-2.709,1.241-2.709,2.709c0,8.597,0,17.195,0,25.792
				c0,1.464,1.241,2.709,2.709,2.709c4.865,0,9.73,0,14.594,0c0.028,2.17,0.055,4.337,0.068,6.501h-22.878v17.878h22.769
				c0.015,14.036,1.012,27.896,8.309,40.591c8.104,14.099,21.804,24.696,37.395,29.229c10.612,3.086,21.647,2.505,32.562,2.505
				c3.26,0,7.255-2.501,7.836-5.966c5.014-29.912,25.967-55.225,55.014-64.686c29.559-9.629,62.807-2.2,84.912,19.822
				c12.283,12.236,19.948,27.819,22.805,44.865c0.581,3.466,4.538,5.966,7.836,5.966c33.115,0,66.23,0,99.345,0
				c52.977,0,105.953,0,158.929,0c12.103,0,24.205,0,36.308,0c3.26,0,7.255-2.501,7.836-5.966
				c5.014-29.912,25.967-55.225,55.014-64.686c29.559-9.629,62.806-2.2,84.912,19.822c12.283,12.236,19.948,27.819,22.805,44.865
				c0.581,3.466,4.538,5.966,7.837,5.966c11.629,0,23.258,0,34.887,0c13.308,0,27.581,1.239,40.46-2.71
				c21.535-6.603,39.133-24.778,43.573-47.088c1.451-7.288,1.645-14.921,1.561-22.527h15.608v-17.878h-15.864
				c-0.001-4.214-0.008-8.427-0.012-12.641c4.811,0,9.621,0,14.432,0c0.795,0,1.399-0.289,1.832-0.724
				c0.032-0.027,0.061-0.058,0.092-0.087c0.016-0.018,0.034-0.034,0.049-0.053c0.441-0.433,0.735-1.042,0.735-1.845
				c0-9.752,0-19.504,0-29.255C1004.279,597.635,1003.038,596.39,1001.57,596.39z M137.247,631.785c-3.94,0-7.881,0-11.822,0
				c0-6.791,0-13.583,0-20.374c4.119,0,8.237,0,12.356,0C137.227,618.169,137.184,624.979,137.247,631.785z M946.574,534.632
				C946.966,534.689,947.219,534.737,946.574,534.632L946.574,534.632z M250.417,331.256c2.178-5.583,7.399-7.252,12.759-7.276
				c9.135-0.041,18.271,0,27.407,0c41.499,0,82.997,0,124.496,0c56.53,0,113.059,0,169.589,0c52.354,0,104.709,0,157.064,0
				c28.973,0,57.945,0,86.918,0c1.341,0,2.681,0,4.022,0c13.263,0.492,14.479,17.82,4.028,21.901
				c-1.255,0.018-2.508,0.057-3.755,0.131c-12.363,0-24.727,0-37.09,0c-31.388,0-62.775,0-94.163,0c-42.314,0-84.628,0-126.943,0
				c-44.609,0-89.218,0-133.827,0c-38.789,0-77.577,0-116.366,0c-22.221,0-44.441,0-66.662,0
				C251.939,343.994,247.792,337.986,250.417,331.256z M963.162,643.704h-9.27v17.878h6.183
				c-3.352,8.686-9.109,16.254-17.633,21.669c-12.445,7.905-25.747,7.301-39.767,7.301c-11.418,0-22.836,0-34.254,0
				c-7.541-32.46-32.008-59.304-63.749-69.968c-34.292-11.521-73.364-2.081-98.879,23.443
				c-10.819,10.823-18.934,24.194-23.621,38.711c-0.881,2.57-1.661,5.175-2.321,7.814c-30.49,0-60.979,0-91.468,0
				c-51.744,0-103.489,0-155.233,0c-9.674,0-19.348,0-29.021,0c-7.541-32.46-32.007-59.304-63.749-69.968
				c-34.292-11.521-73.364-2.081-98.879,23.443c-10.82,10.823-18.934,24.195-23.622,38.713c-0.893,2.607-1.685,5.249-2.351,7.926
				c-4.855,0.108-9.768,0.162-14.469-0.56c-11.498-1.765-22.088-7.94-29.349-17.023c-2.941-3.679-5.015-7.527-6.484-11.501h5.274
				v-17.878h-8.574c-0.292-5.464-0.175-11.049-0.175-16.675c0-14.258-1.173-29.055,0.216-43.27c0.322-3.299,0.775-6.602,1.302-9.905
				c0.509-2.534,1.037-5.055,1.486-7.546c0.542-3.011,1.085-6.021,1.628-9.032c1.003-4.916,2.018-9.817,2.896-14.688
				c0.809-4.488,1.539-8.99,2.243-13.495c0.653-3.417,1.256-6.847,1.589-10.292c1.759-11.402,3.605-22.78,6.379-33.98
				c0.117-0.472,0.184-0.926,0.229-1.371c1.606-6.229,3.337-12.425,5.178-18.586c6.92-23.158,15.019-46.195,25.641-67.937
				c4.32-8.842,9.032-17.724,15.041-25.554c0.012-0.016,1.916-2.319,2.93-3.408c1.23-1.322,2.526-2.576,3.913-3.732
				c0.064-0.053,0.115-0.097,0.159-0.135c0.09-0.05,0.206-0.118,0.372-0.218c0.557-0.337,1.125-0.671,1.676-1.017
				c0.085-0.053,0.151-0.095,0.219-0.138c0.048-0.02,0.11-0.049,0.206-0.095c0.574-0.278,1.254-0.336,1.866-0.491
				c-0.501,0.127-0.809,0.201-0.99,0.243c0.269-0.053,0.743-0.133,1.075-0.12c0.532,0.021,1.071,0.001,1.603,0
				c2.181-0.003,4.361,0,6.542,0c3.535,0,7.069,0,10.604,0c2.137,0.453,4.338,0.704,6.573,0.722c3.011,0.026,6.023,0,9.033,0
				c13.612,0,27.224,0,40.836,0c48.199,0,96.397,0,144.596,0c58.85,0,117.701,0,176.551,0c48.75,0,97.501,0,146.251,0
				c13.944,0,27.889,0,41.833,0c5.48,0,10.899,0.043,15.978-0.852c17.322-0.017,35.207,5.953,43.683,22.144
				c0.401,0.766,0.92,1.412,1.521,1.948c1.307,1.723,4.326,5.929,6.06,8.523c2.589,3.872,5.032,7.841,7.349,11.882
				c5.47,9.545,10.273,19.499,14.375,29.705c11.875,29.552,19.058,60.808,23.749,92.244c0.474,3.177,4.633,6.315,7.836,5.966
				c1.304-0.142,2.612-0.046,3.917,0.008c0.112,0.004,0.281,0.024,0.453,0.046c0.592,0.104,1.183,0.215,1.769,0.357
				c1.731,0.418,3.096,0.95,3.184,0.993c3.318,1.616,5.049,3.02,6.924,6.048c1.451,2.345,2.343,4.914,2.905,7.57
				c-0.572,0-1.143,0-1.715,0c-4.263,0-8.491-0.276-12.522,1.427c-7.223,3.051-11.688,10.725-10.709,18.51
				c1.007,8.01,7.43,14.434,15.44,15.44c3.561,0.447,7.281,0.166,10.858,0.166c0.219,0,0.439,0,0.658,0
				C963.209,604.641,963.353,624.178,963.162,643.704z M998.862,625.645c-3.909,0-7.819,0-11.728,0
				c-0.009-7.946-0.015-15.891-0.022-23.838c3.917,0,7.833,0,11.75,0C998.862,609.754,998.862,617.699,998.862,625.645z"/>
			<path style="fill:#272525;" d="M622.786,422.473c0-14.806-8.738-28.496-23.995-31.426c-4.991-0.959-10.253-0.611-15.309-0.611
				c-9.031,0-18.062,0-27.093,0c-25.096,0-50.192,0-75.288,0c-15.961,0-31.934-0.177-47.895,0
				c-15.022,0.167-28.155,10.592-30.217,25.787c-1.102,8.121-0.344,16.707-0.344,24.871c0,11.857,0,23.714,0,35.571
				c0,11.507,1.16,22.43,10.83,30.383c12.331,10.143,32.657,6.911,47.58,6.911c42.988,0,85.976,0,128.964,0c0.99,0,1.979,0,2.969,0
				c0.358,0,0.701-0.023,1.034-0.059c16.504-1.07,28.607-14.119,28.763-30.716c0.092-9.788,0-19.582,0-29.37
				C622.786,443.366,622.786,432.92,622.786,422.473z M606.483,485.639c-0.779,6.94-6.699,11.835-13.494,12.066
				c-35.435,0-70.87,0-106.305,0c-16.981,0-33.962,0-50.943,0c-7.136,0-14.196-2.107-16.355-9.961
				c-1.793-6.522-0.487-14.805-0.487-21.448c0-11.542,0-23.083,0-34.624c0-7.417-1.53-16.68,4.998-21.948
				c4.287-3.459,9.277-3.035,14.366-3.035c7.457,0,14.914,0,22.371,0c41.877,0,83.755,0,125.632,0c4.811,0,9.911-0.577,14.128,2.233
				c7.361,4.904,6.141,13.462,6.141,21.099c0,11.43,0,22.861,0,34.292C606.533,471.283,607.263,478.692,606.483,485.639z"/>
			<path style="fill:#272525;" d="M383.475,421.524c-0.091-11.303-5.311-21.722-15.394-27.343c-6.097-3.4-12.573-3.745-19.3-3.745
				c-16.723,0-33.446,0-50.169,0c-14.165,0-28.342-0.172-42.506,0c-11.199,0.136-21.925,5.808-27.131,16.008
				c-3.502,6.861-3.41,13.882-3.41,21.286c0,17.297,0,34.593,0,51.89c0,8.841,1.333,17.041,7.353,24.045
				c6.245,7.266,15.07,10.256,24.409,10.294c31.159,0.126,62.321,0,93.48,0c0.957,0,1.914,0,2.87,0c0.351,0,0.687-0.021,1.014-0.056
				c14.757-0.96,26.98-11.796,28.584-26.811c0.567-5.305,0.199-10.787,0.199-16.11C383.475,454.498,383.608,438.008,383.475,421.524
				z M366.031,489.748c-2.212,4.918-7.089,7.779-12.353,7.958c-27.448,0-54.896,0-82.344,0c-10.397,0-27.401,2.761-29.415-11.708
				c-0.598-4.3-0.101-8.956-0.101-13.275c0-8.63,0-17.259,0-25.889c0-7.451,0-14.901,0-22.352c0-6.077,0.489-11.801,6.141-15.56
				c3.859-2.567,8.175-2.233,12.552-2.233c6.411,0,12.822,0,19.233,0c17.596,0,35.192,0,52.788,0c5.884,0,11.768,0,17.652,0
				c5.288,0,10.355,0.478,14.003,4.998c3.564,4.417,3.035,9.721,3.035,14.993c0,7.968,0,15.935,0,23.902c0,8.321,0,16.642,0,24.964
				C367.222,480.046,367.924,485.538,366.031,489.748z"/>
			<path style="fill:#272525;" d="M886.48,450.755c-5.333-11.106-10.667-22.211-16-33.316c-6.169-12.846-11.36-27.37-27.643-29.012
				c-4.854-0.489-9.868-0.158-14.735-0.158c-10.718,0-21.435,0-32.153,0c-28.076,0-56.153,0-84.23,0c-10.688,0-21.376,0-32.064,0
				c-5.769,0-11.992-0.51-17.668,0.733c-10.134,2.218-18.518,10.02-21.792,19.806c-1.473,4.405-1.491,8.939-1.491,13.507
				c0,12.94,0,25.88,0,38.819c0,9.629-1.601,21.532,1.746,30.778c4.723,13.046,16.787,19.834,30.183,19.88
				c18.34,0.064,36.681,0,55.021,0c47.413,0,94.827,0,142.241,0c0.976,0,1.953,0,2.929,0c0.327,0,0.644-0.016,0.95-0.046
				c17.96-0.928,36.61-14.808,27.591-34.157C895.174,468.597,890.774,459.697,886.48,450.755z M870.824,495.539
				c-38.387,0-76.774,0-115.161,0c-23.196,0-46.391,0-69.587,0c-5.438,0-10.878,0.043-16.315,0
				c-8.841-0.069-14.732-5.98-14.803-14.834c-0.167-20.65-0.542-41.413,0-62.055c0.242-9.224,6.999-14.095,15.635-14.127
				c6.802-0.025,13.604,0,20.405,0c47.05,0,94.099,0,141.15,0c3.841,0,10.054-0.898,13.343,1.399
				c5.021,3.507,7.118,11.547,9.563,16.821c1.436,3.097,2.958,6.158,4.435,9.236c5.588,11.636,11.175,23.271,16.763,34.906
				c2.274,4.735,4.547,9.47,6.821,14.204c0.78,1.625,2.567,4.011,2.786,5.861C886.573,492.986,874.966,495.43,870.824,495.539z"/>
			<path style="fill:#272525;" d="M904.482,445.904c-6.779-14.116-13.557-28.231-20.336-42.347
				c-5.946-12.382-10.364-27.593-26.496-28.02c-7.209-0.191-14.45,0-21.661,0c-32.616,0-65.232,0-97.848,0
				c-19.516,0-39.038,0.085-58.551,0.085c-14.643,0-34.927-3.783-45.277,9.243c-1.3,1.636-2.273,3.321-3.016,5.045
				c-4.291-7.191-12.17-11.857-21.024-12.121c-30.436-0.909-61.036,0-91.482,0c-34.226,0-68.456-0.147-102.681,0
				c-11.118,0.048-19.704,5.676-23.72,14.515c-1.857-3.592-4.539-6.695-8.406-9.009c-7.302-4.37-16.213-3.34-24.367-3.34
				c-13.351,0-26.702,0-40.053,0c-23.682,0-47.479-0.693-71.152,0c-13.978,0.41-28.96,14.36-32.738,27.456
				c-1.799,6.237-0.746,13.852-0.746,20.221c0,28.987,0,57.975,0,86.962c0,9.466-0.029,18.933,0,28.399
				c0.045,14.805,6.434,28.416,19.27,36.388c9.442,5.864,19.319,6.438,30.086,5.494c12.663-1.11,25.486-0.42,37.932,2.18
				c23.172,4.84,44.755,16.087,62.078,32.212c8.726,8.123,16.246,17.357,22.585,27.445c0.269,0.428,0.602,0.725,0.963,0.93
				c0.376,0.237,0.828,0.395,1.376,0.411c0.799,0.023,1.504-0.255,2.14-0.743c2.145,1.968,5.665,3.881,11.434,4.727
				c8.731,4.455,20.114,2.983,29.575,2.983c18.963,0,37.926,0,56.888,0c38.01,0,76.02,0,114.031,0c2.354,0,4.707,0,7.06,0
				c9.912-0.337,18.16-6.006,22.024-14.345c0.963,1.746,2.188,3.425,3.781,5.018c6.091,6.091,13.659,7.159,21.807,7.159
				c7.347,0,14.863,0.483,22.195,0c3.572-0.235,4.146-2.363,6.101-5.362c3.883-5.957,8.369-11.495,13.368-16.551
				c9.451-9.558,20.699-17.295,33.021-22.672c12.565-5.483,26.083-8.287,39.762-8.682c0.081-0.003,0.158-0.02,0.237-0.03
				c18.718,0,37.435,0,56.152,0c11.236,0,22.472,0,33.708,0c8.709,0,17.424,0.539,25.701-2.776
				c17.987-7.206,27.494-25.721,25.23-44.411c0.288-0.402,0.468-0.913,0.468-1.542c0-25.476-0.853-51.096,0-76.556
				c0.159-4.744,0.067-8.536-2.029-12.979C909.445,456.147,906.945,451.034,904.482,445.904z M388.922,639.955
				c-23.84-35.219-62.697-58.373-105.49-60.789c-6.379-0.36-12.783-0.265-19.148,0.293c-6.081,0.533-11.678,1.052-17.675-0.555
				c-10.236-2.742-18.973-10.078-23.288-19.784c-3.608-8.115-2.976-16.865-2.976-25.499c0-27.131,0-54.262,0-81.393
				c0-11.087,0-22.174,0-33.262c0-2.154-0.11-4.341,0-6.493c0.395-7.755,6.391-14.608,11.987-19.463
				c4.599-3.989,10.044-7.431,16.261-7.635c2.864-0.094,5.748,0,8.613,0c12.195,0,24.391,0,36.586,0c24.969,0,49.938,0,74.908,0
				c3.59,0,6.984,0.035,10.4,1.518c6.109,2.652,9.801,8.016,10.963,14.224c-0.105,1.038-0.166,2.096-0.17,3.18
				c-0.037,11.667,0,23.335,0,35.002c0,42.961,0,85.922,0,128.883c0,16.564,0,33.127,0,49.691c0,5.213-0.204,10.482,0.481,15.446
				C390.201,635.626,389.739,637.828,388.922,639.955z M610.345,649.603c-27.651,0-55.302,0-82.952,0c-35.772,0-71.544,0-107.316,0
				c-3.319,0-6.892,0.269-10.134-0.513c-7.906-1.908-12.752-8.054-14.179-15.428c1.255-12.358,0.113-28.639,0.113-31.622
				c0-28.724,0-57.447,0-86.171c0-28.168,0-56.336,0-84.504c0-9.12,1.348-20.628-0.624-30.547c0.176-1.261,0.411-2.493,0.737-3.673
				c4.39-15.864,20.554-13.938,33.208-13.938c17.409,0,34.819,0,52.228,0c38.589,0,77.178,0,115.768,0c3.981,0,7.964-0.033,11.945,0
				c10.304,0.084,18.629,6.733,19.987,16.85c-0.161,2.649-0.135,5.358-0.135,8.115c0,60.225,0,120.451,0,180.677
				c0,10.768,0,21.536,0,32.304c0,2.975,0.026,5.902,0.305,8.741C629.093,640.701,621.377,649.229,610.345,649.603z M908.58,471.693
				c-0.732,9.129-0.097,18.547-0.097,27.702c0,14.38,0,28.76,0,43.14c0,2.168,0,4.335,0,6.503c-0.529,0.668-0.757,1.596-0.602,2.493
				c3.289,19.049-8.504,38.302-27.923,42.068c-6.249,1.212-13.457,0.541-19.837,0.541c-22.755,0-45.509,0-68.263,0
				c-6.485,0-12.97,0-19.454,0c-0.169,0-0.333,0.021-0.494,0.052c-37.705,1.255-72.14,21.227-91.997,53.244
				c-5.242,0-10.485,0-15.727,0c-6.727,0-14.327,0.945-20.363-2.6c-6.342-3.725-8.416-9.195-9.09-15.247
				c0.028-2.021-0.007-4.046-0.007-6.065c0-14.656,0-29.312,0-43.969c0-43.161,0-86.321,0-129.482c0-14.051,0-28.102,0-42.154
				c0-2.638,0.129-5.326-0.124-7.955c-0.007-0.076-0.025-0.149-0.033-0.224c1.125-11.141,8.832-18.649,20.912-18.701
				c10.316-0.044,20.639,0.117,30.951-0.085c19.599-0.383,39.244,0,58.846,0c29.731,0,59.463,0,89.195,0
				c7.397,0,14.797-0.058,22.194,0c13.417,0.105,16.72,12.67,21.641,22.919c5.78,12.036,11.56,24.073,17.341,36.109
				c2.954,6.152,5.909,12.305,8.863,18.457C906.643,462.88,908.988,466.598,908.58,471.693z"/>
		</g>
	</g>
</g>
</svg>
